<mxfile host="Electron" modified="2024-07-26T01:17:59.928Z" agent="Mozilla/5.0 (X11; Linux x86_64) AppleWebKit/537.36 (KHTML, like Gecko) draw.io/24.6.4 Chrome/124.0.6367.207 Electron/30.0.6 Safari/537.36" etag="rfxgGd6E7ZcAjVjeVf1t" version="24.6.4" type="device">
  <diagram name="Page-1" id="MNCSfQrfVvPtCD18PkKs">
    <mxGraphModel dx="989" dy="570" grid="1" gridSize="10" guides="1" tooltips="1" connect="1" arrows="1" fold="1" page="1" pageScale="1" pageWidth="850" pageHeight="1100" math="0" shadow="0">
      <root>
        <mxCell id="0" />
        <mxCell id="1" parent="0" />
        <mxCell id="1gZT6O1D7UaZgbnd7kwI-1" value="User" style="shape=umlActor;verticalLabelPosition=bottom;verticalAlign=top;html=1;outlineConnect=0;" vertex="1" parent="1">
          <mxGeometry x="110" y="210" width="30" height="60" as="geometry" />
        </mxCell>
        <mxCell id="1gZT6O1D7UaZgbnd7kwI-2" value="" style="endArrow=classic;html=1;rounded=0;" edge="1" parent="1">
          <mxGeometry width="50" height="50" relative="1" as="geometry">
            <mxPoint x="124.66" y="290" as="sourcePoint" />
            <mxPoint x="124.66" y="490" as="targetPoint" />
          </mxGeometry>
        </mxCell>
        <mxCell id="1gZT6O1D7UaZgbnd7kwI-3" value="" style="endArrow=classic;html=1;rounded=0;" edge="1" parent="1">
          <mxGeometry width="50" height="50" relative="1" as="geometry">
            <mxPoint x="150" y="280" as="sourcePoint" />
            <mxPoint x="325.34" y="280" as="targetPoint" />
          </mxGeometry>
        </mxCell>
        <mxCell id="1gZT6O1D7UaZgbnd7kwI-4" value="" style="endArrow=classic;html=1;rounded=0;" edge="1" parent="1">
          <mxGeometry width="50" height="50" relative="1" as="geometry">
            <mxPoint x="150" y="320" as="sourcePoint" />
            <mxPoint x="325.34" y="320" as="targetPoint" />
          </mxGeometry>
        </mxCell>
        <mxCell id="1gZT6O1D7UaZgbnd7kwI-5" value="" style="endArrow=classic;html=1;rounded=0;" edge="1" parent="1">
          <mxGeometry width="50" height="50" relative="1" as="geometry">
            <mxPoint x="150" y="360" as="sourcePoint" />
            <mxPoint x="325.34" y="360" as="targetPoint" />
          </mxGeometry>
        </mxCell>
        <mxCell id="1gZT6O1D7UaZgbnd7kwI-6" value="" style="endArrow=classic;html=1;rounded=0;" edge="1" parent="1">
          <mxGeometry width="50" height="50" relative="1" as="geometry">
            <mxPoint x="150" y="400" as="sourcePoint" />
            <mxPoint x="325.34" y="400" as="targetPoint" />
          </mxGeometry>
        </mxCell>
        <mxCell id="1gZT6O1D7UaZgbnd7kwI-7" value="POST /register" style="text;html=1;align=center;verticalAlign=middle;resizable=0;points=[];autosize=1;strokeColor=none;fillColor=none;" vertex="1" parent="1">
          <mxGeometry x="140" y="250" width="100" height="30" as="geometry" />
        </mxCell>
        <mxCell id="1gZT6O1D7UaZgbnd7kwI-8" value="POST /login" style="text;html=1;align=center;verticalAlign=middle;resizable=0;points=[];autosize=1;strokeColor=none;fillColor=none;" vertex="1" parent="1">
          <mxGeometry x="140" y="290" width="90" height="30" as="geometry" />
        </mxCell>
        <mxCell id="1gZT6O1D7UaZgbnd7kwI-9" value="GET /products" style="text;html=1;align=center;verticalAlign=middle;resizable=0;points=[];autosize=1;strokeColor=none;fillColor=none;" vertex="1" parent="1">
          <mxGeometry x="140" y="330" width="100" height="30" as="geometry" />
        </mxCell>
        <mxCell id="1gZT6O1D7UaZgbnd7kwI-10" value="GET /products/{id}" style="text;html=1;align=center;verticalAlign=middle;resizable=0;points=[];autosize=1;strokeColor=none;fillColor=none;" vertex="1" parent="1">
          <mxGeometry x="140" y="370" width="120" height="30" as="geometry" />
        </mxCell>
        <mxCell id="1gZT6O1D7UaZgbnd7kwI-11" value="" style="endArrow=classic;html=1;rounded=0;" edge="1" parent="1">
          <mxGeometry width="50" height="50" relative="1" as="geometry">
            <mxPoint x="150" y="440" as="sourcePoint" />
            <mxPoint x="325.34" y="440" as="targetPoint" />
          </mxGeometry>
        </mxCell>
        <mxCell id="1gZT6O1D7UaZgbnd7kwI-12" value="POST /products" style="text;html=1;align=center;verticalAlign=middle;resizable=0;points=[];autosize=1;strokeColor=none;fillColor=none;" vertex="1" parent="1">
          <mxGeometry x="140" y="410" width="110" height="30" as="geometry" />
        </mxCell>
        <mxCell id="1gZT6O1D7UaZgbnd7kwI-13" value="POST /cart/checkout" style="text;html=1;align=center;verticalAlign=middle;resizable=0;points=[];autosize=1;strokeColor=none;fillColor=none;" vertex="1" parent="1">
          <mxGeometry x="140" y="450" width="130" height="30" as="geometry" />
        </mxCell>
        <mxCell id="1gZT6O1D7UaZgbnd7kwI-14" value="" style="endArrow=classic;html=1;rounded=0;" edge="1" parent="1">
          <mxGeometry width="50" height="50" relative="1" as="geometry">
            <mxPoint x="150" y="480" as="sourcePoint" />
            <mxPoint x="325.34" y="480" as="targetPoint" />
          </mxGeometry>
        </mxCell>
        <mxCell id="1gZT6O1D7UaZgbnd7kwI-15" value="" style="sketch=0;pointerEvents=1;shadow=0;dashed=0;html=1;strokeColor=none;labelPosition=center;verticalLabelPosition=bottom;verticalAlign=top;outlineConnect=0;align=center;shape=mxgraph.office.security.key_permissions;fillColor=#7FBA42;rotation=-90;" vertex="1" parent="1">
          <mxGeometry x="290" y="438.5" width="25" height="53" as="geometry" />
        </mxCell>
        <mxCell id="1gZT6O1D7UaZgbnd7kwI-16" value="API Server" style="swimlane;whiteSpace=wrap;html=1;" vertex="1" parent="1">
          <mxGeometry x="350" y="265" width="210" height="230" as="geometry" />
        </mxCell>
        <mxCell id="1gZT6O1D7UaZgbnd7kwI-17" value="" style="image;sketch=0;aspect=fixed;html=1;points=[];align=center;fontSize=12;image=img/lib/mscae/Docker.svg;" vertex="1" parent="1gZT6O1D7UaZgbnd7kwI-16">
          <mxGeometry x="65.37" y="87.5" width="79.27" height="65" as="geometry" />
        </mxCell>
        <mxCell id="1gZT6O1D7UaZgbnd7kwI-18" value="MySQL" style="strokeWidth=2;html=1;shape=mxgraph.flowchart.database;whiteSpace=wrap;" vertex="1" parent="1">
          <mxGeometry x="650" y="334" width="90" height="92" as="geometry" />
        </mxCell>
        <mxCell id="1gZT6O1D7UaZgbnd7kwI-20" value="" style="endArrow=classic;html=1;rounded=0;exitX=1;exitY=0.5;exitDx=0;exitDy=0;entryX=0;entryY=0.5;entryDx=0;entryDy=0;entryPerimeter=0;" edge="1" parent="1" source="1gZT6O1D7UaZgbnd7kwI-16" target="1gZT6O1D7UaZgbnd7kwI-18">
          <mxGeometry width="50" height="50" relative="1" as="geometry">
            <mxPoint x="390" y="430" as="sourcePoint" />
            <mxPoint x="440" y="380" as="targetPoint" />
          </mxGeometry>
        </mxCell>
      </root>
    </mxGraphModel>
  </diagram>
</mxfile>
